<svg width="45" height="43" viewBox="0 0 45 43" fill="none" xmlns="http://www.w3.org/2000/svg">
<path fill-rule="evenodd" clip-rule="evenodd" d="M22.0833 40.375C33.0599 40.375 41.9583 31.8123 41.9583 21.25C41.9583 10.6877 33.0599 2.125 22.0833 2.125C11.1068 2.125 2.20833 10.6877 2.20833 21.25C2.20833 31.8123 11.1068 40.375 22.0833 40.375ZM22.0833 42.5C34.28 42.5 44.1667 32.9864 44.1667 21.25C44.1667 9.51363 34.28 0 22.0833 0C9.88671 0 0 9.51363 0 21.25C0 32.9864 9.88671 42.5 22.0833 42.5Z" fill="black"/>
<path d="M8.8335 33.6069C8.8335 32.5093 9.68591 31.5818 10.821 31.4606C19.3396 30.5533 24.866 30.6351 33.3659 31.4808C33.7903 31.5237 34.1926 31.6846 34.5236 31.9439C34.8546 32.2032 35.0999 32.5496 35.2297 32.9408C35.3594 33.3321 35.368 33.7512 35.2542 34.147C35.1405 34.5429 34.9095 34.8983 34.5893 35.1698C24.5579 43.5838 18.8251 43.4679 9.54016 35.1783C9.08745 34.7746 8.8335 34.2008 8.8335 33.6079V33.6069Z" fill="black"/>
<path fill-rule="evenodd" clip-rule="evenodd" d="M33.2518 32.537C24.8193 31.6976 19.3724 31.619 10.941 32.5168C10.6635 32.5479 10.4076 32.6764 10.2224 32.8778C10.0372 33.0791 9.93574 33.3391 9.93734 33.608C9.93734 33.9119 10.0687 34.1998 10.2907 34.3995C14.8928 38.5072 18.3798 40.3634 21.7884 40.375C25.2091 40.3867 28.8837 38.5454 33.8635 34.3698C34.0217 34.2343 34.1356 34.0575 34.1914 33.8609C34.2471 33.6643 34.2423 33.4563 34.1775 33.2623C34.1127 33.0682 33.9907 32.8965 33.8264 32.7679C33.662 32.6394 33.4624 32.5595 33.2518 32.538V32.537ZM10.6992 30.4045C19.3073 29.4876 24.9143 29.5705 33.4804 30.4237C34.1189 30.4878 34.7242 30.7297 35.2221 31.1197C35.7199 31.5098 36.0888 32.0311 36.2836 32.6197C36.4783 33.2084 36.4904 33.8389 36.3185 34.4342C36.1466 35.0294 35.798 35.5634 35.3155 35.971C30.2639 40.2082 26.0571 42.516 21.7817 42.5C17.4943 42.4852 13.4729 40.1381 8.79011 35.9572C8.45484 35.6567 8.18756 35.2929 8.00499 34.8885C7.82242 34.4841 7.72847 34.0478 7.72901 33.6069C7.7274 32.8147 8.02957 32.0499 8.57763 31.4588C9.1257 30.8677 9.88113 30.4919 10.6992 30.4035V30.4045Z" fill="black"/>
<path d="M30.9167 17C30.9167 19.2543 29.986 21.4163 28.3294 23.0104C26.6729 24.6045 24.4261 25.5 22.0833 25.5C19.7406 25.5 17.4938 24.6045 15.8372 23.0104C14.1807 21.4163 13.25 19.2543 13.25 17C13.25 14.7457 14.1807 12.5837 15.8372 10.9896C17.4938 9.39553 19.7406 8.5 22.0833 8.5C24.4261 8.5 26.6729 9.39553 28.3294 10.9896C29.986 12.5837 30.9167 14.7457 30.9167 17V17Z" fill="black"/>
<path fill-rule="evenodd" clip-rule="evenodd" d="M22.0833 23.375C23.8404 23.375 25.5255 22.7034 26.7679 21.5078C28.0103 20.3123 28.7083 18.6908 28.7083 17C28.7083 15.3092 28.0103 13.6877 26.7679 12.4922C25.5255 11.2967 23.8404 10.625 22.0833 10.625C20.3263 10.625 18.6412 11.2967 17.3987 12.4922C16.1563 13.6877 15.4583 15.3092 15.4583 17C15.4583 18.6908 16.1563 20.3123 17.3987 21.5078C18.6412 22.7034 20.3263 23.375 22.0833 23.375V23.375ZM22.0833 25.5C24.4261 25.5 26.6729 24.6045 28.3294 23.0104C29.986 21.4163 30.9167 19.2543 30.9167 17C30.9167 14.7457 29.986 12.5837 28.3294 10.9896C26.6729 9.39553 24.4261 8.5 22.0833 8.5C19.7406 8.5 17.4938 9.39553 15.8372 10.9896C14.1807 12.5837 13.25 14.7457 13.25 17C13.25 19.2543 14.1807 21.4163 15.8372 23.0104C17.4938 24.6045 19.7406 25.5 22.0833 25.5V25.5Z" fill="black"/>
</svg>
